ffmpeg started on 2025-06-20 at 17:05:23
Report written to "D:\Convert\FFMetrics\reports\psnr_report-6.txt"
Log level: 32
Command line:
ffmpeg -hide_banner -nostdin -i "G:\\\xc0\xed\xe8\xec\xe5\\[\xd2\xee\xef]\\\xc2\xee\xeb\xf7\xe8\xf6\xe0 \xe8 \xef\xf0\xff\xed\xee\xf1\xf2\xe8\\\xd2\xee\xf0\xe3\xee\xe2\xe5\xf6 \xe2\xf1\xf2\xf0\xe5\xf7\xe0\xe5\xf2 \xec\xf3\xe4\xf0\xf3\xfe \xe2\xee\xeb\xf7\xe8\xf6\xf3\\DC_Ookami_to_Koushinryou_Merchant_Meets_the_Wise_Wolf_12_Telegram_HEVC.mkv" -i "G:\\\xc0\xed\xe8\xec\xe5\\[\xd2\xee\xef]\\\xc2\xee\xeb\xf7\xe8\xf6\xe0 \xe8 \xef\xf0\xff\xed\xee\xf1\xf2\xe8\\\xd2\xee\xf0\xe3\xee\xe2\xe5\xf6 \xe2\xf1\xf2\xf0\xe5\xf7\xe0\xe5\xf2 \xec\xf3\xe4\xf0\xf3\xfe \xe2\xee\xeb\xf7\xe8\xf6\xf3\\DC_Ookami_to_Koushinryou_Merchant_Meets_the_Wise_Wolf_12_Telegram.mp4" -lavfi "[0:v]settb=AVTB,setpts=PTS-STARTPTS,format=pix_fmts=yuv420p10,fps=24000/1001,scale=1920:1080:flags=bicubic[main];[1:v]settb=AVTB,setpts=PTS-STARTPTS,format=pix_fmts=yuv420p,fps=24000/1001,scale=1920:1080:flags=bicubic[ref];[main][ref]psnr=eof_action=endall:stats_file='D\\:/Convert/FFMetrics/logs/psnr_logfile-6.txt'" -f null -
Input #0, matroska,webm, from 'G:\Аниме\[Топ]\Волчица и пряности\Торговец встречает мудрую волчицу\DC_Ookami_to_Koushinryou_Merchant_Meets_the_Wise_Wolf_12_Telegram_HEVC.mkv':
  Metadata:
    COMPATIBLE_BRANDS: isomiso2avc1mp41
    MAJOR_BRAND     : isom
    MINOR_VERSION   : 512
    ENCODER         : Lavf61.7.100
  Duration: 00:23:57.70, start: -0.021000, bitrate: 1102 kb/s
  Stream #0:0: Video: hevc (Main 10), yuv420p10le(tv, bt709, progressive), 1920x1080 [SAR 1:1 DAR 16:9], 23.98 fps, 23.98 tbr, 1k tbn (default)
      Metadata:
        HANDLER_NAME    : VideoHandler
        VENDOR_ID       : [0][0][0][0]
        ENCODER         : Lavc61.19.100 libx265
        BPS             : 906371
        DURATION        : 00:23:56.601708333
        NUMBER_OF_FRAMES: 34444
        NUMBER_OF_BYTES : 162761744
        _STATISTICS_WRITING_APP: mkvpropedit v66.0.0 ('Josie') 64-bit
        _STATISTICS_WRITING_DATE_UTC: 2025-06-20 11:05:51
        _STATISTICS_TAGS: BPS DURATION NUMBER_OF_FRAMES NUMBER_OF_BYTES
  Stream #0:1: Audio: aac (LC), 48000 Hz, stereo, fltp (default)
      Metadata:
        HANDLER_NAME    : SoundHandler
        VENDOR_ID       : [0][0][0][0]
        ENCODER         : Lavc61.19.100 aac
        BPS             : 193101
        DURATION        : 00:23:57.696000000
        NUMBER_OF_FRAMES: 67393
        NUMBER_OF_BYTES : 34702739
        _STATISTICS_WRITING_APP: mkvpropedit v66.0.0 ('Josie') 64-bit
        _STATISTICS_WRITING_DATE_UTC: 2025-06-20 11:05:51
        _STATISTICS_TAGS: BPS DURATION NUMBER_OF_FRAMES NUMBER_OF_BYTES
Input #1, mov,mp4,m4a,3gp,3g2,mj2, from 'G:\Аниме\[Топ]\Волчица и пряности\Торговец встречает мудрую волчицу\DC_Ookami_to_Koushinryou_Merchant_Meets_the_Wise_Wolf_12_Telegram.mp4':
  Metadata:
    major_brand     : isom
    minor_version   : 512
    compatible_brands: isomiso2avc1mp41
    encoder         : Lavf60.16.100
  Duration: 00:23:57.67, start: 0.000000, bitrate: 3765 kb/s
  Stream #1:0[0x1](und): Video: h264 (High) (avc1 / 0x31637661), yuv420p(tv, bt709, progressive), 1920x1080 [SAR 1:1 DAR 16:9], 3620 kb/s, 23.98 fps, 23.98 tbr, 24k tbn (default)
      Metadata:
        handler_name    : VideoHandler
        vendor_id       : [0][0][0][0]
        encoder         : Lavc60.31.102 h264_qsv
  Stream #1:1[0x2](und): Audio: aac (HE-AACv2) (mp4a / 0x6134706D), 48000 Hz, stereo, fltp, 144 kb/s (default)
      Metadata:
        handler_name    : SoundHandler
        vendor_id       : [0][0][0][0]
Stream mapping:
  Stream #0:0 (hevc) -> settb:default
  Stream #1:0 (h264) -> settb:default
  psnr:default -> Stream #0:0 (wrapped_avframe)
  Stream #0:1 -> #0:1 (aac (native) -> pcm_s16le (native))
Output #0, null, to 'pipe:':
  Metadata:
    COMPATIBLE_BRANDS: isomiso2avc1mp41
    MAJOR_BRAND     : isom
    MINOR_VERSION   : 512
    encoder         : Lavf61.7.100
  Stream #0:0: Video: wrapped_avframe, yuv420p10le(tv, bt709, progressive), 1920x1080 [SAR 1:1 DAR 16:9], q=2-31, 200 kb/s, 23.98 fps, 23.98 tbn
      Metadata:
        encoder         : Lavc61.19.100 wrapped_avframe
  Stream #0:1: Audio: pcm_s16le, 48000 Hz, stereo, s16, 1536 kb/s (default)
      Metadata:
        HANDLER_NAME    : SoundHandler
        VENDOR_ID       : [0][0][0][0]
        _STATISTICS_TAGS: BPS DURATION NUMBER_OF_FRAMES NUMBER_OF_BYTES
        BPS             : 193101
        DURATION        : 00:23:57.696000000
        NUMBER_OF_FRAMES: 67393
        NUMBER_OF_BYTES : 34702739
        _STATISTICS_WRITING_APP: mkvpropedit v66.0.0 ('Josie') 64-bit
        _STATISTICS_WRITING_DATE_UTC: 2025-06-20 11:05:51
        encoder         : Lavc61.19.100 pcm_s16le
frame=  188 fps=0.0 q=-0.0 size=N/A time=00:00:07.84 bitrate=N/A speed=15.3x    frame=  436 fps=427 q=-0.0 size=N/A time=00:00:18.18 bitrate=N/A speed=17.8x    frame=  707 fps=456 q=-0.0 size=N/A time=00:00:29.48 bitrate=N/A speed=  19x    frame=  973 fps=469 q=-0.0 size=N/A time=00:00:40.58 bitrate=N/A speed=19.5x    frame= 1247 fps=482 q=-0.0 size=N/A time=00:00:52.01 bitrate=N/A speed=20.1x    frame= 1458 fps=469 q=-0.0 size=N/A time=00:01:00.81 bitrate=N/A speed=19.5x    frame= 1662 fps=459 q=-0.0 size=N/A time=00:01:09.31 bitrate=N/A speed=19.1x    frame= 1836 fps=444 q=-0.0 size=N/A time=00:01:16.57 bitrate=N/A speed=18.5x    frame= 2048 fps=440 q=-0.0 size=N/A time=00:01:25.41 bitrate=N/A speed=18.4x    frame= 2254 fps=437 q=-0.0 size=N/A time=00:01:34.01 bitrate=N/A speed=18.2x    frame= 2489 fps=438 q=-0.0 size=N/A time=00:01:43.81 bitrate=N/A speed=18.3x    frame= 2709 fps=437 q=-0.0 size=N/A time=00:01:52.98 bitrate=N/A speed=18.2x    frame= 2936 fps=438 q=-0.0 size=N/A time=00:02:02.45 bitrate=N/A speed=18.3x    frame= 3195 fps=442 q=-0.0 size=N/A time=00:02:13.25 bitrate=N/A speed=18.4x    frame= 3423 fps=442 q=-0.0 size=N/A time=00:02:22.76 bitrate=N/A speed=18.4x    frame= 3651 fps=442 q=-0.0 size=N/A time=00:02:32.27 bitrate=N/A speed=18.4x    frame= 3885 fps=443 q=-0.0 size=N/A time=00:02:42.03 bitrate=N/A speed=18.5x    frame= 4119 fps=443 q=-0.0 size=N/A time=00:02:51.79 bitrate=N/A speed=18.5x    frame= 4358 fps=444 q=-0.0 size=N/A time=00:03:01.76 bitrate=N/A speed=18.5x    frame= 4580 fps=443 q=-0.0 size=N/A time=00:03:11.02 bitrate=N/A speed=18.5x    frame= 4814 fps=444 q=-0.0 size=N/A time=00:03:20.78 bitrate=N/A speed=18.5x    frame= 5063 fps=445 q=-0.0 size=N/A time=00:03:31.16 bitrate=N/A speed=18.6x    frame= 5294 fps=446 q=-0.0 size=N/A time=00:03:40.80 bitrate=N/A speed=18.6x    frame= 5528 fps=446 q=-0.0 size=N/A time=00:03:50.56 bitrate=N/A speed=18.6x    frame= 5783 fps=448 q=-0.0 size=N/A time=00:04:01.19 bitrate=N/A speed=18.7x    frame= 6018 fps=448 q=-0.0 size=N/A time=00:04:11.00 bitrate=N/A speed=18.7x    frame= 6264 fps=449 q=-0.0 size=N/A time=00:04:21.26 bitrate=N/A speed=18.7x    frame= 6479 fps=448 q=-0.0 size=N/A time=00:04:30.22 bitrate=N/A speed=18.7x    frame= 6682 fps=446 q=-0.0 size=N/A time=00:04:38.69 bitrate=N/A speed=18.6x    frame= 6923 fps=447 q=-0.0 size=N/A time=00:04:48.74 bitrate=N/A speed=18.6x    frame= 7160 fps=447 q=-0.0 size=N/A time=00:04:58.63 bitrate=N/A speed=18.6x    frame= 7403 fps=448 q=-0.0 size=N/A time=00:05:08.76 bitrate=N/A speed=18.7x    frame= 7647 fps=448 q=-0.0 size=N/A time=00:05:18.94 bitrate=N/A speed=18.7x    frame= 7899 fps=449 q=-0.0 size=N/A time=00:05:29.45 bitrate=N/A speed=18.7x    frame= 8130 fps=450 q=-0.0 size=N/A time=00:05:39.08 bitrate=N/A speed=18.7x    frame= 8380 fps=450 q=-0.0 size=N/A time=00:05:49.51 bitrate=N/A speed=18.8x    frame= 8629 fps=451 q=-0.0 size=N/A time=00:05:59.90 bitrate=N/A speed=18.8x    frame= 8884 fps=453 q=-0.0 size=N/A time=00:06:10.53 bitrate=N/A speed=18.9x    frame= 9144 fps=454 q=-0.0 size=N/A time=00:06:21.38 bitrate=N/A speed=18.9x    frame= 9376 fps=454 q=-0.0 size=N/A time=00:06:31.05 bitrate=N/A speed=18.9x    frame= 9624 fps=454 q=-0.0 size=N/A time=00:06:41.40 bitrate=N/A speed=  19x    frame= 9852 fps=454 q=-0.0 size=N/A time=00:06:50.91 bitrate=N/A speed=18.9x    frame=10117 fps=455 q=-0.0 size=N/A time=00:07:01.96 bitrate=N/A speed=  19x    frame=10371 fps=456 q=-0.0 size=N/A time=00:07:12.55 bitrate=N/A speed=  19x    frame=10627 fps=457 q=-0.0 size=N/A time=00:07:23.23 bitrate=N/A speed=19.1x    frame=10845 fps=456 q=-0.0 size=N/A time=00:07:32.32 bitrate=N/A speed=  19x    frame=11048 fps=455 q=-0.0 size=N/A time=00:07:40.79 bitrate=N/A speed=  19x    frame=11269 fps=454 q=-0.0 size=N/A time=00:07:50.01 bitrate=N/A speed=  19x    frame=11487 fps=454 q=-0.0 size=N/A time=00:07:59.10 bitrate=N/A speed=18.9x    frame=11715 fps=453 q=-0.0 size=N/A time=00:08:08.65 bitrate=N/A speed=18.9x    frame=11945 fps=453 q=-0.0 size=N/A time=00:08:18.24 bitrate=N/A speed=18.9x    frame=12170 fps=453 q=-0.0 size=N/A time=00:08:27.59 bitrate=N/A speed=18.9x    frame=12389 fps=452 q=-0.0 size=N/A time=00:08:36.72 bitrate=N/A speed=18.9x    frame=12623 fps=452 q=-0.0 size=N/A time=00:08:46.48 bitrate=N/A speed=18.9x    frame=12863 fps=453 q=-0.0 size=N/A time=00:08:56.49 bitrate=N/A speed=18.9x    frame=13108 fps=453 q=-0.0 size=N/A time=00:09:06.71 bitrate=N/A speed=18.9x    frame=13328 fps=453 q=-0.0 size=N/A time=00:09:15.88 bitrate=N/A speed=18.9x    frame=13566 fps=453 q=-0.0 size=N/A time=00:09:25.81 bitrate=N/A speed=18.9x    frame=13801 fps=453 q=-0.0 size=N/A time=00:09:35.61 bitrate=N/A speed=18.9x    frame=14038 fps=453 q=-0.0 size=N/A time=00:09:45.50 bitrate=N/A speed=18.9x    frame=14274 fps=453 q=-0.0 size=N/A time=00:09:55.34 bitrate=N/A speed=18.9x    frame=14499 fps=453 q=-0.0 size=N/A time=00:10:04.72 bitrate=N/A speed=18.9x    frame=14726 fps=452 q=-0.0 size=N/A time=00:10:14.19 bitrate=N/A speed=18.9x    frame=14955 fps=452 q=-0.0 size=N/A time=00:10:23.74 bitrate=N/A speed=18.9x    frame=15188 fps=452 q=-0.0 size=N/A time=00:10:33.46 bitrate=N/A speed=18.9x    frame=15416 fps=452 q=-0.0 size=N/A time=00:10:42.97 bitrate=N/A speed=18.8x    frame=15655 fps=452 q=-0.0 size=N/A time=00:10:52.94 bitrate=N/A speed=18.9x    frame=15907 fps=453 q=-0.0 size=N/A time=00:11:03.45 bitrate=N/A speed=18.9x    frame=16177 fps=454 q=-0.0 size=N/A time=00:11:14.71 bitrate=N/A speed=18.9x    frame=16449 fps=455 q=-0.0 size=N/A time=00:11:26.06 bitrate=N/A speed=  19x    frame=16732 fps=456 q=-0.0 size=N/A time=00:11:37.86 bitrate=N/A speed=  19x    frame=17007 fps=457 q=-0.0 size=N/A time=00:11:49.33 bitrate=N/A speed=19.1x    frame=17277 fps=458 q=-0.0 size=N/A time=00:12:00.59 bitrate=N/A speed=19.1x    frame=17550 fps=459 q=-0.0 size=N/A time=00:12:11.98 bitrate=N/A speed=19.1x    frame=17810 fps=460 q=-0.0 size=N/A time=00:12:22.82 bitrate=N/A speed=19.2x    frame=18068 fps=460 q=-0.0 size=N/A time=00:12:33.58 bitrate=N/A speed=19.2x    frame=18340 fps=461 q=-0.0 size=N/A time=00:12:44.93 bitrate=N/A speed=19.2x    frame=18601 fps=462 q=-0.0 size=N/A time=00:12:55.81 bitrate=N/A speed=19.3x    frame=18830 fps=461 q=-0.0 size=N/A time=00:13:05.36 bitrate=N/A speed=19.2x    frame=19075 fps=462 q=-0.0 size=N/A time=00:13:15.58 bitrate=N/A speed=19.3x    frame=19334 fps=462 q=-0.0 size=N/A time=00:13:26.38 bitrate=N/A speed=19.3x    frame=19591 fps=462 q=-0.0 size=N/A time=00:13:37.10 bitrate=N/A speed=19.3x    frame=19836 fps=463 q=-0.0 size=N/A time=00:13:47.32 bitrate=N/A speed=19.3x    frame=20091 fps=463 q=-0.0 size=N/A time=00:13:57.96 bitrate=N/A speed=19.3x    frame=20367 fps=464 q=-0.0 size=N/A time=00:14:09.47 bitrate=N/A speed=19.3x    frame=20604 fps=464 q=-0.0 size=N/A time=00:14:19.35 bitrate=N/A speed=19.3x    frame=20877 fps=464 q=-0.0 size=N/A time=00:14:30.74 bitrate=N/A speed=19.4x    frame=21155 fps=465 q=-0.0 size=N/A time=00:14:42.33 bitrate=N/A speed=19.4x    frame=21414 fps=466 q=-0.0 size=N/A time=00:14:53.14 bitrate=N/A speed=19.4x    frame=21674 fps=466 q=-0.0 size=N/A time=00:15:03.98 bitrate=N/A speed=19.4x    frame=21929 fps=467 q=-0.0 size=N/A time=00:15:14.62 bitrate=N/A speed=19.5x    frame=22195 fps=467 q=-0.0 size=N/A time=00:15:25.71 bitrate=N/A speed=19.5x    frame=22433 fps=467 q=-0.0 size=N/A time=00:15:35.64 bitrate=N/A speed=19.5x    frame=22650 fps=467 q=-0.0 size=N/A time=00:15:44.69 bitrate=N/A speed=19.5x    frame=22891 fps=466 q=-0.0 size=N/A time=00:15:54.74 bitrate=N/A speed=19.5x    frame=23101 fps=466 q=-0.0 size=N/A time=00:16:03.50 bitrate=N/A speed=19.4x    frame=23319 fps=465 q=-0.0 size=N/A time=00:16:12.59 bitrate=N/A speed=19.4x    frame=23595 fps=466 q=-0.0 size=N/A time=00:16:24.10 bitrate=N/A speed=19.4x    frame=23866 fps=467 q=-0.0 size=N/A time=00:16:35.41 bitrate=N/A speed=19.5x    frame=24135 fps=467 q=-0.0 size=N/A time=00:16:46.63 bitrate=N/A speed=19.5x    frame=24408 fps=468 q=-0.0 size=N/A time=00:16:58.01 bitrate=N/A speed=19.5x    frame=24701 fps=469 q=-0.0 size=N/A time=00:17:10.23 bitrate=N/A speed=19.6x    frame=24987 fps=470 q=-0.0 size=N/A time=00:17:22.16 bitrate=N/A speed=19.6x    frame=25280 fps=471 q=-0.0 size=N/A time=00:17:34.38 bitrate=N/A speed=19.6x    frame=25572 fps=471 q=-0.0 size=N/A time=00:17:46.56 bitrate=N/A speed=19.7x    frame=25841 fps=472 q=-0.0 size=N/A time=00:17:57.78 bitrate=N/A speed=19.7x    frame=26128 fps=473 q=-0.0 size=N/A time=00:18:09.75 bitrate=N/A speed=19.7x    frame=26406 fps=473 q=-0.0 size=N/A time=00:18:21.35 bitrate=N/A speed=19.7x    frame=26678 fps=474 q=-0.0 size=N/A time=00:18:32.69 bitrate=N/A speed=19.8x    frame=26955 fps=474 q=-0.0 size=N/A time=00:18:44.24 bitrate=N/A speed=19.8x    frame=27232 fps=475 q=-0.0 size=N/A time=00:18:55.80 bitrate=N/A speed=19.8x    frame=27519 fps=476 q=-0.0 size=N/A time=00:19:07.77 bitrate=N/A speed=19.8x    frame=27777 fps=476 q=-0.0 size=N/A time=00:19:18.53 bitrate=N/A speed=19.8x    frame=28020 fps=476 q=-0.0 size=N/A time=00:19:28.66 bitrate=N/A speed=19.8x    frame=28266 fps=476 q=-0.0 size=N/A time=00:19:38.92 bitrate=N/A speed=19.8x    frame=28514 fps=476 q=-0.0 size=N/A time=00:19:49.27 bitrate=N/A speed=19.8x    frame=28783 fps=476 q=-0.0 size=N/A time=00:20:00.49 bitrate=N/A speed=19.9x    frame=29062 fps=477 q=-0.0 size=N/A time=00:20:12.12 bitrate=N/A speed=19.9x    frame=29305 fps=477 q=-0.0 size=N/A time=00:20:22.26 bitrate=N/A speed=19.9x    frame=29598 fps=478 q=-0.0 size=N/A time=00:20:34.48 bitrate=N/A speed=19.9x    frame=29860 fps=478 q=-0.0 size=N/A time=00:20:45.41 bitrate=N/A speed=19.9x    frame=30118 fps=478 q=-0.0 size=N/A time=00:20:56.17 bitrate=N/A speed=19.9x    frame=30396 fps=478 q=-0.0 size=N/A time=00:21:07.76 bitrate=N/A speed=  20x    frame=30654 fps=479 q=-0.0 size=N/A time=00:21:18.52 bitrate=N/A speed=  20x    frame=30920 fps=479 q=-0.0 size=N/A time=00:21:29.62 bitrate=N/A speed=  20x    frame=31186 fps=479 q=-0.0 size=N/A time=00:21:40.71 bitrate=N/A speed=  20x    frame=31440 fps=479 q=-0.0 size=N/A time=00:21:51.31 bitrate=N/A speed=  20x    frame=31706 fps=480 q=-0.0 size=N/A time=00:22:02.40 bitrate=N/A speed=  20x    frame=31948 fps=480 q=-0.0 size=N/A time=00:22:12.49 bitrate=N/A speed=  20x    frame=32177 fps=479 q=-0.0 size=N/A time=00:22:22.04 bitrate=N/A speed=  20x    frame=32295 fps=477 q=-0.0 size=N/A time=00:22:26.97 bitrate=N/A speed=19.9x    frame=32496 fps=477 q=-0.0 size=N/A time=00:22:35.35 bitrate=N/A speed=19.9x    frame=32704 fps=476 q=-0.0 size=N/A time=00:22:44.02 bitrate=N/A speed=19.9x    frame=32971 fps=476 q=-0.0 size=N/A time=00:22:55.16 bitrate=N/A speed=19.9x    frame=33214 fps=476 q=-0.0 size=N/A time=00:23:05.30 bitrate=N/A speed=19.9x    frame=33440 fps=476 q=-0.0 size=N/A time=00:23:14.72 bitrate=N/A speed=19.9x    frame=33669 fps=476 q=-0.0 size=N/A time=00:23:24.27 bitrate=N/A speed=19.9x    frame=33944 fps=476 q=-0.0 size=N/A time=00:23:35.74 bitrate=N/A speed=19.9x    frame=34103 fps=475 q=-0.0 size=N/A time=00:23:42.37 bitrate=N/A speed=19.8x    frame=34347 fps=475 q=-0.0 size=N/A time=00:23:52.55 bitrate=N/A speed=19.8x    [Parsed_psnr_10 @ 00000185f5e51840] PSNR y:49.170783 u:52.301232 v:52.591023 average:50.013866 min:40.604871 max:inf
[out#0/null @ 00000185f5605480] video:14800KiB audio:269572KiB subtitle:0KiB other streams:0KiB global headers:0KiB muxing overhead: unknown
frame=34444 fps=475 q=-0.0 Lsize=N/A time=00:23:56.60 bitrate=N/A speed=19.8x    
